HIERARCHY
ROOT Root
{
  OFFSET 6.90105 11.8871 -0.957331
  CHANNELS 6 Xposition Yposition Zposition Zrotation Xrotation Yrotation
  JOINT Spine
  {
    OFFSET 5.3114 0 0
    CHANNELS 3 Zrotation Xrotation Yrotation
    JOINT Spine1
    {
      OFFSET 2.79004 0 0
      CHANNELS 3 Zrotation Xrotation Yrotation
      JOINT Neck
      {
        OFFSET 1.43377 0 0
        CHANNELS 3 Zrotation Xrotation Yrotation
        JOINT Head
        {
          OFFSET 1.86043 0 0
          CHANNELS 3 Zrotation Xrotation Yrotation
          End Site
          {
            OFFSET 0 0 0
          }
        }
      }
      JOINT LeftArm
      {
        OFFSET 0.0387506 0 2.55754
        CHANNELS 3 Zrotation Xrotation Yrotation
        JOINT LeftForeArm
        {
          OFFSET 4.24845 0 0
          CHANNELS 3 Zrotation Xrotation Yrotation
          JOINT LeftHand
          {
            OFFSET 4.01008 0 0
            CHANNELS 3 Zrotation Xrotation Yrotation
            End Site
            {
              OFFSET 0 0 0
            }
          }
        }
      }
      JOINT RightArm
      {
        OFFSET 0.0387506 0 -2.55754
        CHANNELS 3 Zrotation Xrotation Yrotation
        JOINT RightForeArm
        {
          OFFSET -4.24845 0 0
          CHANNELS 3 Zrotation Xrotation Yrotation
          JOINT RightHand
          {
            OFFSET -4.01009 0 0
            CHANNELS 3 Zrotation Xrotation Yrotation
            End Site
            {
              OFFSET 0 0 0
            }
          }
        }
      }
    }
  }
  JOINT LeftUpLeg
  {
    OFFSET -1.23318 0 2.05692
    CHANNELS 3 Zrotation Xrotation Yrotation
    JOINT LeftLeg
    {
      OFFSET 5.46397 0 0
      CHANNELS 3 Zrotation Xrotation Yrotation
      JOINT LeftFoot
      {
        OFFSET 4.68898 0 0
        CHANNELS 3 Zrotation Xrotation Yrotation
        End Site
        {
          OFFSET 0 0 0
        }
      }
    }
  }
  JOINT RightUpLeg
  {
    OFFSET -1.24454 0 -2.05007
    CHANNELS 3 Zrotation Xrotation Yrotation
    JOINT RightLeg
    {
      OFFSET -5.46397 0 0
      CHANNELS 3 Zrotation Xrotation Yrotation
      JOINT RightFoot
      {
        OFFSET -4.68901 0 0
        CHANNELS 3 Zrotation Xrotation Yrotation
        End Site
        {
          OFFSET 0 0 0
        }
      }
    }
  }
}
MOTION
Frames: 9
Frame Time: 0.0083333
0 0 0 0 90 90 1.60972 0.797865 7.22507 7.92687 0.393696 1.25484 -13.8317 4.96514 2.57684 38.8134 5.33293 -10.9966 8.68716 -21.967 -164.244 28.7774 1.7032 16.627 -1.02559 -11.561 174.35 170.334 0.202722 -162.692 93.0826 32.1385 40.5345 -2.38945 -25.4792 173.914 -37.0131 14.9657 -176.633 -32.9604 -0.969398 -1.2541 24.5016 -17.5496 -175.732 171.765 -0.418502 174.283 -25.1689 -0.894057 -1.13593 3.87027 15.534 176.702 
0 0 0 0 90 90 1.60972 0.797865 7.22507 7.92687 0.393696 1.25484 -13.8317 4.96514 2.57684 38.8134 5.33293 -10.9966 8.68716 -21.967 -164.244 28.7774 1.7032 16.627 -1.02559 -11.561 174.35 170.334 0.202722 -162.692 93.0826 32.1385 40.5345 -2.38945 -25.4792 173.914 -37.0131 14.9657 -176.633 -32.9604 -0.969398 -1.2541 24.5016 -17.5496 -175.732 171.765 -0.418502 174.283 -25.1689 -0.894057 -1.13593 3.87027 15.534 176.702 
0 0 0 0 90 90 2.15276 0.678972 7.11359 7.92209 0.254107 1.58753 -14.2037 4.65638 1.59812 39.0243 4.62761 -10.3214 9.19703 -22.9205 -164.331 30.1649 1.99646 17.4017 -1.15677 -12.9887 174.321 175.308 1.43865 -165.336 91.1808 30.9845 40.3826 -3.28492 -33.2227 173.475 -35.6832 14.9525 -176.614 -35.2461 -0.994595 -1.35202 22.8524 -14.7627 -177.127 169.267 -1.16463 175.033 -27.3921 -0.903124 -1.18862 4.39114 14.9291 176.687 
0 0 0 0 90 90 2.25642 1.00341 7.26706 7.8928 0.190875 1.70476 -14.5416 4.09887 0.613064 38.3977 3.64076 -9.52875 8.47999 -23.9768 -164.619 31.0724 2.20088 17.9048 -1.16874 -13.1095 174.319 -179.274 0.351965 -167.284 88.265 29.2032 40.0653 -4.01044 -38.6387 173.048 -34.8605 14.8867 -176.915 -38.1928 -1.06283 -1.40497 22.7292 -12.0307 -178.085 166.6 -0.436347 176.066 -29.195 -0.894101 -1.23463 3.05001 14.3733 177.082 
0 0 0 0 90 90 -4.7508 2.39166 -0.938055 7.53687 0.752973 1.62988 -17.1732 0.205182 -3.27028 8.67301 0.0875504 5.42199 28.6505 -35.2255 -161.885 79.0099 23.5493 38.3774 -2.17638 -23.4651 174.003 -161.045 -23.7915 -164.734 73.7461 20.4146 36.9979 -1.02797 -11.5661 174.341 -16.3299 0.994894 -179.834 -33.8188 -0.904941 -1.32225 27.3105 -4.48295 179.108 164.654 -8.31778 -177.728 -25.6988 -0.776877 -1.14565 8.84522 3.21173 176.414 
0 0 0 0 90 90 1.53961 1.31547 7.89944 7.83737 0.159823 1.32235 -15.6753 2.27695 -1.00239 37.4116 0.788562 -6.46805 7.12303 -29.9457 -164.107 33.2351 2.71968 19.0952 -1.08862 -12.3622 174.338 -175.494 -3.3956 -167.106 77.4678 22.623 37.9918 -5.01025 -44.9493 172.381 -32.5798 12.2615 -178.588 -44.109 -1.25246 -1.53024 26.6267 -9.42692 -178.352 160.788 0.327283 177.994 -32.9911 -0.902699 -1.32904 0.397792 12.7072 177.722 
0 0 0 0 90 90 -4.50453 -7.90373 3.53001 6.42973 -1.9764 4.28405 -2.08393 5.39315 0.252578 -9.15059 10.8781 -7.04066 19.7922 -40.6218 -145.34 74.4179 17.7547 39.2553 -5.69478 -35.2241 172.646 -158.394 -25.2005 -162.735 66.3727 13.3172 36.2407 -1.811 -12.6833 174.26 -38.6496 24.6532 -174.821 -49.2175 0.693119 -0.405579 35.5385 -12.3205 -171.38 160.793 -10.5585 -177.271 -39.9498 0.703584 -0.677165 23.3558 6.56206 178.641 
0 0 0 0 90 90 -5.21264 -0.0543249 -0.435523 7.63618 0.135079 2.60418 -4.89283 -3.8294 -8.6147 -3.22287 -6.42862 9.25623 4.62433 -38.0292 -161.251 43.8806 3.81414 25.4504 -1.52259 -10.7062 174.312 -173.619 -21.1185 -168.966 42.9198 3.51747 24.9324 0.401731 2.85017 174.427 -15.1419 -6.59815 -177.139 -32.1188 0.572311 -0.783056 32.7391 -13.1469 -171.681 164.181 -10.6299 -177.3 -31.3827 0.591337 -0.777086 23.428 -1.32801 -178.851 
0 0 0 0 90 90 -1.03032 -1.60932 0.611532 4.95812 -0.426645 1.30943 -18.0032 0.174319 -4.40791 20.0228 -0.0758734 2.49124 -2.2003 -38.4826 -165.78 32.664 2.57802 18.7822 -1.5469 -17.0728 174.218 -172.237 -14.4247 -161.59 30.372 2.04329 17.5164 1.95488 21.2993 174.087 -15.4889 -3.59492 -177.095 -33.653 -1.00765 -1.31078 28.0494 -6.60616 179.896 160.555 -9.25029 -177.327 -33.0461 -0.808996 -1.34031 9.88907 7.59214 175.276 
